<?xml version="1.0" encoding="us-ascii" standalone="no"?><svg xmlns="http://www.w3.org/2000/svg" xmlns:xlink="http://www.w3.org/1999/xlink" contentStyleType="text/css" height="464px" preserveAspectRatio="none" style="width:604px;height:464px;background:#FFFFFF;" version="1.1" viewBox="0 0 604 464" width="604px" zoomAndPan="magnify"><defs/><g><!--entity client--><g id="elem_client"><ellipse cx="264.5" cy="14" fill="#F1F1F1" rx="8" ry="8" style="stroke:#181818;stroke-width:0.5;"/><path d="M264.5,22 L264.5,49 M251.5,30 L277.5,30 M264.5,49 L251.5,64 M264.5,49 L277.5,64 " fill="none" style="stroke:#181818;stroke-width:0.5;"/><text fill="#000000" font-family="sans-serif" font-size="14" lengthAdjust="spacing" textLength="138" x="195.5" y="78.4951">custom application</text></g><!--entity bot--><g id="elem_bot"><rect fill="#F1F1F1" height="32.2969" rx="2.5" ry="2.5" style="stroke:#181818;stroke-width:0.5;" width="42" x="245.5" y="162.5"/><rect fill="#F1F1F1" height="32.2969" rx="2.5" ry="2.5" style="stroke:#181818;stroke-width:0.5;" width="42" x="241.5" y="158.5"/><text fill="#000000" font-family="sans-serif" font-size="14" lengthAdjust="spacing" textLength="26" x="249.5" y="179.4951">bot</text></g><!--entity bot_manager--><g id="elem_bot_manager"><rect fill="#F1F1F1" height="36.2969" rx="2.5" ry="2.5" style="stroke:#181818;stroke-width:0.5;" width="115" x="7" y="280.5"/><text fill="#000000" font-family="sans-serif" font-size="14" lengthAdjust="spacing" textLength="95" x="17" y="303.4951">bot-manager</text></g><!--entity bot_storage--><g id="elem_bot_storage"><path d="M165,271.5 L206,271.5 A3.75,3.75 0 0 1 208.5,274 L215.5,292.5 L296,292.5 A2.5,2.5 0 0 1 298.5,295 L298.5,323.2969 A2.5,2.5 0 0 1 296,325.7969 L165,325.7969 A2.5,2.5 0 0 1 162.5,323.2969 L162.5,274 A2.5,2.5 0 0 1 165,271.5 " fill="#F1F1F1" style="stroke:#181818;stroke-width:0.5;"/><line style="stroke:#181818;stroke-width:0.5;" x1="162.5" x2="215.5" y1="292.5" y2="292.5"/><text fill="#000000" font-family="sans-serif" font-size="14" lengthAdjust="spacing" textLength="106" x="172.5" y="312.4951">object storage</text></g><!--entity redis--><g id="elem_redis"><path d="M11,412.5 C11,402.5 38.5,402.5 38.5,402.5 C38.5,402.5 66,402.5 66,412.5 L66,437.7969 C66,447.7969 38.5,447.7969 38.5,447.7969 C38.5,447.7969 11,447.7969 11,437.7969 L11,412.5 " fill="#F1F1F1" style="stroke:#181818;stroke-width:0.5;"/><path d="M11,412.5 C11,422.5 38.5,422.5 38.5,422.5 C38.5,422.5 66,422.5 66,412.5 " fill="none" style="stroke:#181818;stroke-width:0.5;"/><text fill="#000000" font-family="sans-serif" font-size="14" lengthAdjust="spacing" textLength="35" x="21" y="439.4951">redis</text></g><!--entity rabbitmq--><g id="elem_rabbitmq"><path d="M361.5,412 L439.5,412 C444.5,412 444.5,425.1484 444.5,425.1484 C444.5,425.1484 444.5,438.2969 439.5,438.2969 L361.5,438.2969 C356.5,438.2969 356.5,425.1484 356.5,425.1484 C356.5,425.1484 356.5,412 361.5,412 " fill="#F1F1F1" style="stroke:#181818;stroke-width:0.5;"/><path d="M439.5,412 C434.5,412 434.5,425.1484 434.5,425.1484 C434.5,438.2969 439.5,438.2969 439.5,438.2969 " fill="none" style="stroke:#181818;stroke-width:0.5;"/><text fill="#000000" font-family="sans-serif" font-size="14" lengthAdjust="spacing" textLength="68" x="361.5" y="429.9951">rabbitmq</text></g><!--link bot to bot_manager--><g id="link_bot_bot_manager"><path d="M235.6916,187.2785 C205.5326,197.6755 160.321,213.996 143.5,224.5 C118.474,240.128 98.3061,259.855 83.4247,276.05 " fill="none" id="bot-bot_manager" style="stroke:#181818;stroke-width:1.0;"/><polygon fill="#181818" points="241.364,185.323,231.5517,184.4747,236.637,186.9526,234.1591,192.0378,241.364,185.323" style="stroke:#181818;stroke-width:1.0;"/><polygon fill="#181818" points="79.365,280.468,88.3999,276.5474,82.7481,276.7863,82.5092,271.1345,79.365,280.468" style="stroke:#181818;stroke-width:1.0;"/><text fill="#000000" font-family="sans-serif" font-size="13" lengthAdjust="spacing" textLength="71" x="144.5" y="237.5669">Heartbeats</text></g><!--link bot to bot_storage--><g id="link_bot_bot_storage"><path d="M246.554,194.515 C239.136,202.77 231.375,213.313 227.5,224.5 C222.31,239.482 222.0839,272.2943 224.0499,286.5423 " fill="none" id="bot-to-bot_storage" style="stroke:#181818;stroke-width:1.0;"/><polygon fill="#181818" points="224.87,292.486,227.6023,283.0237,224.1866,287.5329,219.6773,284.1172,224.87,292.486" style="stroke:#181818;stroke-width:1.0;"/><text fill="#000000" font-family="sans-serif" font-size="13" lengthAdjust="spacing" textLength="145" x="228.5" y="237.5669">Save polldata and files</text></g><!--link bot to rabbitmq--><g id="link_bot_rabbitmq"><path d="M287.516,180.077 C314.038,184.364 356.755,195.585 378.5,224.5 C422.062,282.427 410.4584,372.0252 404.1634,405.8002 " fill="none" id="bot-to-rabbitmq" style="stroke:#181818;stroke-width:1.0;"/><polygon fill="#181818" points="403.064,411.6986,408.6453,403.5839,403.9801,406.7832,400.7807,402.1181,403.064,411.6986" style="stroke:#181818;stroke-width:1.0;"/><text fill="#000000" font-family="sans-serif" font-size="13" lengthAdjust="spacing" textLength="93" x="410.5" y="303.0669">Publish events</text></g><!--link bot_manager to rabbitmq--><g id="link_bot_manager_rabbitmq"><path d="M98.4928,319.617 C130.7628,338.54 176.041,364.4178 196.5,372.5 C249.668,393.5035 308.1788,406.931 350.2088,415.0841 " fill="none" id="bot_manager-rabbitmq" style="stroke:#181818;stroke-width:1.0;"/><polygon fill="#181818" points="93.317,316.582,99.0573,324.5851,97.6301,319.1112,103.104,317.6841,93.317,316.582" style="stroke:#181818;stroke-width:1.0;"/><polygon fill="#181818" points="356.099,416.2267,348.0254,410.586,351.1905,415.2745,346.502,418.4396,356.099,416.2267" style="stroke:#181818;stroke-width:1.0;"/><text fill="#000000" font-family="sans-serif" font-size="13" lengthAdjust="spacing" textLength="176" x="197.5" y="368.5669">Receive and publish events</text></g><!--link bot_manager to redis--><g id="link_bot_manager_redis"><path d="M49.6645,321.9171 C43.1707,332.5691 38.8682,341.671 35.5,355.5 C31.7534,370.8823 31.9315,382.8211 33.7151,396.4595 " fill="none" id="bot_manager-redis" style="stroke:#181818;stroke-width:1.0;"/><polygon fill="#181818" points="52.7877,316.794,44.6876,322.3965,50.185,321.0632,51.5183,326.5607,52.7877,316.794" style="stroke:#181818;stroke-width:1.0;"/><polygon fill="#181818" points="34.4931,402.4088,37.2923,392.9661,33.8447,397.451,29.3598,394.0035,34.4931,402.4088" style="stroke:#181818;stroke-width:1.0;"/><text fill="#000000" font-family="sans-serif" font-size="13" lengthAdjust="spacing" textLength="119" x="36.5" y="368.5669">Cache and queues</text></g><!--link client to bot_manager--><g id="link_client_bot_manager"><path d="M195.495,67.893 C153.736,85.855 103.4919,115.053 76.5,158.5 C52.8531,196.563 56.2279,246.2692 60.4117,274.2042 " fill="none" id="client-to-bot_manager" style="stroke:#181818;stroke-width:1.0;"/><polygon fill="#181818" points="61.3004,280.138,63.9232,270.6448,60.5598,275.1932,56.0115,271.8297,61.3004,280.138" style="stroke:#181818;stroke-width:1.0;"/><text fill="#000000" font-family="sans-serif" font-size="13" lengthAdjust="spacing" textLength="145" x="77.5" y="181.0669">Get ip and port of bots</text></g><!--link client to bot--><g id="link_client_bot"><path d="M264.5,81.689 C264.5,106.802 264.5,132.792 264.5,152.18 " fill="none" id="client-to-bot" style="stroke:#181818;stroke-width:1.0;"/><polygon fill="#181818" points="264.5,158.18,268.5,149.18,264.5,153.18,260.5,149.18,264.5,158.18" style="stroke:#181818;stroke-width:1.0;"/><text fill="#000000" font-family="sans-serif" font-size="13" lengthAdjust="spacing" textLength="78" x="265.5" y="124.5669">Control bots</text></g><!--link rabbitmq to client--><g id="link_rabbitmq_client"><path d="M423.308,411.9774 C450.411,396.2408 494.254,365.8454 512.5,325.5 C522.39,303.632 521.684,293.673 512.5,271.5 C477.264,186.432 396.355,123.215 335.549,84.76 " fill="none" id="rabbitmq-to-client" style="stroke:#181818;stroke-width:1.0;"/><polygon fill="#181818" points="330.478,81.553,335.9465,89.7442,334.7038,84.2255,340.2225,82.9828,330.478,81.553" style="stroke:#181818;stroke-width:1.0;"/><text fill="#000000" font-family="sans-serif" font-size="13" lengthAdjust="spacing" textLength="99" x="497.5" y="237.5669">Receive events</text></g><!--SRC=[XP0zRiCm38LtdOBmxWiKGPSEwLYq1oWecKvKoA8ZqJb_gH-xHJfqiiZtyJtIw8GJ36xBmWlWkWRlK3p70J232vwY6CSXa2lT38DbgPf-3LvKhgrnmQXLsgNFNfkPmqIQmFPBBK1ZalOFhDTcGa6BcM18DFbSzVeojussqaPhlIotflJ26FM0qpW-_yw49tWbJ6899JTa9tgS4Xzu9rZri98C62UOVQ1yq7k4ec-R3JvVWUvwRIMEfDC3-awEl1eNl_M_iNAUphoWkxQ9Ugfkt7ux_3thJ09-RUwS17WkG7uOA9uS9N5ewh5VqJlwisfRxni0]--></g></svg>