<?xml version="1.0" encoding="us-ascii" standalone="no"?><svg xmlns="http://www.w3.org/2000/svg" xmlns:xlink="http://www.w3.org/1999/xlink" contentStyleType="text/css" height="464px" preserveAspectRatio="none" style="width:602px;height:464px;background:#FFFFFF;" version="1.1" viewBox="0 0 602 464" width="602px" zoomAndPan="magnify"><defs/><g><!--entity client--><g id="elem_client"><ellipse cx="262.5" cy="14" fill="#F1F1F1" rx="8" ry="8" style="stroke:#181818;stroke-width:0.5;"/><path d="M262.5,22 L262.5,49 M249.5,30 L275.5,30 M262.5,49 L249.5,64 M262.5,49 L275.5,64 " fill="none" style="stroke:#181818;stroke-width:0.5;"/><text fill="#000000" font-family="sans-serif" font-size="14" lengthAdjust="spacing" textLength="138" x="193.5" y="78.4951">custom application</text></g><!--entity bot--><g id="elem_bot"><rect fill="#F1F1F1" height="32.2969" rx="2.5" ry="2.5" style="stroke:#181818;stroke-width:0.5;" width="42" x="243.5" y="162.5"/><rect fill="#F1F1F1" height="32.2969" rx="2.5" ry="2.5" style="stroke:#181818;stroke-width:0.5;" width="42" x="239.5" y="158.5"/><text fill="#000000" font-family="sans-serif" font-size="14" lengthAdjust="spacing" textLength="26" x="247.5" y="179.4951">bot</text></g><!--entity bot_manager--><g id="elem_bot_manager"><rect fill="#F1F1F1" height="36.2969" rx="2.5" ry="2.5" style="stroke:#181818;stroke-width:0.5;" width="115" x="7" y="280.5"/><text fill="#000000" font-family="sans-serif" font-size="14" lengthAdjust="spacing" textLength="95" x="17" y="303.4951">bot-manager</text></g><!--entity bot_storage--><g id="elem_bot_storage"><path d="M166.5,271.5 L207.5,271.5 A3.75,3.75 0 0 1 210,274 L217,292.5 L290.5,292.5 A2.5,2.5 0 0 1 293,295 L293,323.2969 A2.5,2.5 0 0 1 290.5,325.7969 L166.5,325.7969 A2.5,2.5 0 0 1 164,323.2969 L164,274 A2.5,2.5 0 0 1 166.5,271.5 " fill="#F1F1F1" style="stroke:#181818;stroke-width:0.5;"/><line style="stroke:#181818;stroke-width:0.5;" x1="164" x2="217" y1="292.5" y2="292.5"/><text fill="#000000" font-family="sans-serif" font-size="14" lengthAdjust="spacing" textLength="99" x="174" y="312.4951">block storage</text></g><!--entity redis--><g id="elem_redis"><path d="M9,412.5 C9,402.5 36.5,402.5 36.5,402.5 C36.5,402.5 64,402.5 64,412.5 L64,437.7969 C64,447.7969 36.5,447.7969 36.5,447.7969 C36.5,447.7969 9,447.7969 9,437.7969 L9,412.5 " fill="#F1F1F1" style="stroke:#181818;stroke-width:0.5;"/><path d="M9,412.5 C9,422.5 36.5,422.5 36.5,422.5 C36.5,422.5 64,422.5 64,412.5 " fill="none" style="stroke:#181818;stroke-width:0.5;"/><text fill="#000000" font-family="sans-serif" font-size="14" lengthAdjust="spacing" textLength="35" x="19" y="439.4951">redis</text></g><!--entity rabbitmq--><g id="elem_rabbitmq"><path d="M359.5,412 L437.5,412 C442.5,412 442.5,425.1484 442.5,425.1484 C442.5,425.1484 442.5,438.2969 437.5,438.2969 L359.5,438.2969 C354.5,438.2969 354.5,425.1484 354.5,425.1484 C354.5,425.1484 354.5,412 359.5,412 " fill="#F1F1F1" style="stroke:#181818;stroke-width:0.5;"/><path d="M437.5,412 C432.5,412 432.5,425.1484 432.5,425.1484 C432.5,438.2969 437.5,438.2969 437.5,438.2969 " fill="none" style="stroke:#181818;stroke-width:0.5;"/><text fill="#000000" font-family="sans-serif" font-size="14" lengthAdjust="spacing" textLength="68" x="359.5" y="429.9951">rabbitmq</text></g><!--link bot to bot_manager--><g id="link_bot_bot_manager"><path d="M234.593,186.929 C204.08,197.485 157.403,214.427 141.5,224.5 C118.833,238.857 97.033,260.509 82.451,276.506 " fill="none" id="bot-bot_manager" style="stroke:#181818;stroke-width:1.0;"/><polygon fill="#181818" points="239.344,185.292,229.5319,184.4417,234.6167,186.9206,232.1377,192.0054,239.344,185.292" style="stroke:#181818;stroke-width:1.0;"/><polygon fill="#181818" points="78.9031,280.444,87.8994,276.4356,82.2501,276.7295,81.9562,271.0803,78.9031,280.444" style="stroke:#181818;stroke-width:1.0;"/><text fill="#000000" font-family="sans-serif" font-size="13" lengthAdjust="spacing" textLength="71" x="142.5" y="237.5669">Heartbeats</text></g><!--link bot to bot_storage--><g id="link_bot_bot_storage"><path d="M244.554,194.515 C237.136,202.77 229.375,213.313 225.5,224.5 C220.919,237.726 220.844,271.4785 222.243,284.7075 " fill="none" id="bot-to-bot_storage" style="stroke:#181818;stroke-width:1.0;"/><polygon fill="#181818" points="222.87,289.8505,225.7502,280.4322,222.2642,284.8873,217.8091,281.4014,222.87,289.8505" style="stroke:#181818;stroke-width:1.0;"/><text fill="#000000" font-family="sans-serif" font-size="13" lengthAdjust="spacing" textLength="145" x="226.5" y="237.5669">Save polldata and files</text></g><!--link bot to rabbitmq--><g id="link_bot_rabbitmq"><path d="M285.516,180.077 C312.038,184.364 354.755,195.585 376.5,224.5 C418.02,279.711 408.426,369.0534 401.985,406.5523 " fill="none" id="bot-to-rabbitmq" style="stroke:#181818;stroke-width:1.0;"/><polygon fill="#181818" points="401.064,411.6986,406.5869,403.544,401.9448,406.7768,398.712,402.1347,401.064,411.6986" style="stroke:#181818;stroke-width:1.0;"/><text fill="#000000" font-family="sans-serif" font-size="13" lengthAdjust="spacing" textLength="93" x="408.5" y="303.0669">Publish events</text></g><!--link bot_manager to rabbitmq--><g id="link_bot_manager_rabbitmq"><path d="M97.4439,319.317 C129.221,338.19 175.251,364.8233 194.5,372.5 C245.688,392.9138 307.393,407.153 349.442,415.4056 " fill="none" id="bot_manager-rabbitmq" style="stroke:#181818;stroke-width:1.0;"/><polygon fill="#181818" points="92.8637,316.592,98.5531,324.6313,97.1607,319.1485,102.6435,317.7561,92.8637,316.592" style="stroke:#181818;stroke-width:1.0;"/><polygon fill="#181818" points="354.47,416.3823,346.3988,410.7382,349.5619,415.4281,344.872,418.5911,354.47,416.3823" style="stroke:#181818;stroke-width:1.0;"/><text fill="#000000" font-family="sans-serif" font-size="13" lengthAdjust="spacing" textLength="176" x="195.5" y="368.5669">Receive and publish events</text></g><!--link bot_manager to redis--><g id="link_bot_manager_redis"><path d="M49.1842,321.089 C43.0186,331.064 36.6332,343.371 33.5,355.5 C30.0043,369.0325 30.3463,384.5612 31.741,397.4084 " fill="none" id="bot_manager-redis" style="stroke:#181818;stroke-width:1.0;"/><polygon fill="#181818" points="51.9891,316.679,43.7844,322.1272,49.3061,320.8982,50.5351,326.4199,51.9891,316.679" style="stroke:#181818;stroke-width:1.0;"/><polygon fill="#181818" points="32.3456,402.3718,35.228,392.9542,31.741,397.4085,27.2867,393.9215,32.3456,402.3718" style="stroke:#181818;stroke-width:1.0;"/><text fill="#000000" font-family="sans-serif" font-size="13" lengthAdjust="spacing" textLength="119" x="34.5" y="368.5669">Cache and queues</text></g><!--link client to bot_manager--><g id="link_client_bot_manager"><path d="M193.283,67.762 C151.44,85.672 101.1806,114.861 74.5,158.5 C52.5202,194.45 55.8185,245.818 60.1736,274.988 " fill="none" id="client-to-bot_manager" style="stroke:#181818;stroke-width:1.0;"/><polygon fill="#181818" points="60.9932,280.167,63.5375,270.6525,60.2118,275.2284,55.6358,271.9027,60.9932,280.167" style="stroke:#181818;stroke-width:1.0;"/><text fill="#000000" font-family="sans-serif" font-size="13" lengthAdjust="spacing" textLength="145" x="75.5" y="181.0669">Get ip and port of bots</text></g><!--link client to bot--><g id="link_client_bot"><path d="M262.5,81.689 C262.5,104.644 262.5,133.344 262.5,152.915 " fill="none" id="client-to-bot" style="stroke:#181818;stroke-width:1.0;"/><polygon fill="#181818" points="262.5,158.18,266.5,149.18,262.5,153.18,258.5,149.18,262.5,158.18" style="stroke:#181818;stroke-width:1.0;"/><text fill="#000000" font-family="sans-serif" font-size="13" lengthAdjust="spacing" textLength="78" x="263.5" y="124.5669">Control bots</text></g><!--link rabbitmq to client--><g id="link_rabbitmq_client"><path d="M421.308,411.9774 C448.411,396.2408 492.254,365.8454 510.5,325.5 C520.39,303.632 519.684,293.673 510.5,271.5 C476.09,188.426 393.286,123.132 332.794,84.303 " fill="none" id="rabbitmq-to-client" style="stroke:#181818;stroke-width:1.0;"/><polygon fill="#181818" points="328.478,81.553,333.9173,89.7636,332.6943,84.2405,338.2174,83.0175,328.478,81.553" style="stroke:#181818;stroke-width:1.0;"/><text fill="#000000" font-family="sans-serif" font-size="13" lengthAdjust="spacing" textLength="99" x="495.5" y="237.5669">Receive events</text></g><!--SRC=[XP0zRiCm38LtdOBmxWiKGPSEwLYq1oWecKw4og8ZqJb_gH-xHJfqiiZtyJtIw8GJ36xBmWlWkWRlK3p70J232vwY6CSXa2lT38DbgPf-3LvKhgrnmQXLsgNFNfkPmqIQO0ExBz2KfEs3whMPKD1Y9XWIJJvNlRxCRQEjjD5QBykjARqmHZtWD8xFloFX2Lu9arX2oGtPYHwdn0VU2LQzgoG3nWbc7oWVz1wXwDjcWyzNeBiUMuaZwVI0lfCZhyR5R_rlh9odCo_ehcsYdgeRjxyEVyywau1Vcpid0PuBa1y6YYT7IHoQUknNz8x-hDhM-mO0]--></g></svg>