<svg xmlns="http://www.w3.org/2000/svg" xmlns:xlink="http://www.w3.org/1999/xlink" contentStyleType="text/css" height="631px" preserveAspectRatio="none" style="width:569px;height:631px;background:#FFFFFF;" version="1.1" viewBox="0 0 569 631" width="569px" zoomAndPan="magnify"><defs/><g><rect fill="#FFFFFF" height="420.3984" style="stroke:#181818;stroke-width:1.0;" width="10" x="33.9551" y="112.4297"/><rect fill="#FFFFFF" height="420.3984" style="stroke:#181818;stroke-width:1.0;" width="10" x="228.792" y="112.4297"/><rect fill="#FFFFFF" height="171.6641" style="stroke:#181818;stroke-width:1.0;" width="10" x="233.792" y="318.0313"/><rect fill="#FFFFFF" height="29.1328" style="stroke:#181818;stroke-width:1.0;" width="10" x="383.0508" y="318.0313"/><rect fill="#FFFFFF" height="29.1328" style="stroke:#181818;stroke-width:1.0;" width="10" x="474.2686" y="418.4297"/><rect fill="none" height="335.1328" style="stroke:#000000;stroke-width:1.5;" width="552.0156" x="10" y="169.5625"/><rect fill="none" height="175.7969" style="stroke:#000000;stroke-width:1.5;" width="380.6826" x="171.333" y="279.7656"/><line style="stroke:#181818;stroke-width:0.5;stroke-dasharray:5.0,5.0;" x1="38" x2="38" y1="81.2969" y2="550.8281"/><line style="stroke:#181818;stroke-width:0.5;stroke-dasharray:5.0,5.0;" x1="233.333" x2="233.333" y1="81.2969" y2="550.8281"/><line style="stroke:#181818;stroke-width:0.5;stroke-dasharray:5.0,5.0;" x1="387.5801" x2="387.5801" y1="81.2969" y2="550.8281"/><line style="stroke:#181818;stroke-width:0.5;stroke-dasharray:5.0,5.0;" x1="478.5215" x2="478.5215" y1="81.2969" y2="550.8281"/><text fill="#000000" font-family="sans-serif" font-size="14" lengthAdjust="spacing" textLength="31.9102" x="20" y="77.9951">User</text><ellipse cx="38.9551" cy="13.5" fill="#E2E2F0" rx="8" ry="8" style="stroke:#181818;stroke-width:0.5;"/><path d="M38.9551,21.5 L38.9551,48.5 M25.9551,29.5 L51.9551,29.5 M38.9551,48.5 L25.9551,63.5 M38.9551,48.5 L51.9551,63.5 " fill="none" style="stroke:#181818;stroke-width:0.5;"/><text fill="#000000" font-family="sans-serif" font-size="14" lengthAdjust="spacing" textLength="31.9102" x="20" y="562.8232">User</text><ellipse cx="38.9551" cy="574.625" fill="#E2E2F0" rx="8" ry="8" style="stroke:#181818;stroke-width:0.5;"/><path d="M38.9551,582.625 L38.9551,609.625 M25.9551,590.625 L51.9551,590.625 M38.9551,609.625 L25.9551,624.625 M38.9551,609.625 L51.9551,624.625 " fill="none" style="stroke:#181818;stroke-width:0.5;"/><rect fill="#E2E2F0" height="30.2969" rx="2.5" ry="2.5" style="stroke:#181818;stroke-width:0.5;" width="104.918" x="181.333" y="50"/><text fill="#000000" font-family="sans-serif" font-size="14" lengthAdjust="spacing" textLength="90.918" x="188.333" y="69.9951">bot-manager</text><rect fill="#E2E2F0" height="30.2969" rx="2.5" ry="2.5" style="stroke:#181818;stroke-width:0.5;" width="104.918" x="181.333" y="549.8281"/><text fill="#000000" font-family="sans-serif" font-size="14" lengthAdjust="spacing" textLength="90.918" x="188.333" y="569.8232">bot-manager</text><rect fill="#E2E2F0" height="30.2969" rx="2.5" ry="2.5" style="stroke:#181818;stroke-width:0.5;" width="36.9414" x="369.5801" y="50"/><text fill="#000000" font-family="sans-serif" font-size="14" lengthAdjust="spacing" textLength="22.9414" x="376.5801" y="69.9951">bot</text><rect fill="#E2E2F0" height="30.2969" rx="2.5" ry="2.5" style="stroke:#181818;stroke-width:0.5;" width="36.9414" x="369.5801" y="549.8281"/><text fill="#000000" font-family="sans-serif" font-size="14" lengthAdjust="spacing" textLength="22.9414" x="376.5801" y="569.8232">bot</text><rect fill="#E2E2F0" height="30.2969" rx="2.5" ry="2.5" style="stroke:#181818;stroke-width:0.5;" width="125.4941" x="416.5215" y="50"/><text fill="#000000" font-family="sans-serif" font-size="14" lengthAdjust="spacing" textLength="111.4941" x="423.5215" y="69.9951">Message broker</text><rect fill="#E2E2F0" height="30.2969" rx="2.5" ry="2.5" style="stroke:#181818;stroke-width:0.5;" width="125.4941" x="416.5215" y="549.8281"/><text fill="#000000" font-family="sans-serif" font-size="14" lengthAdjust="spacing" textLength="111.4941" x="423.5215" y="569.8232">Message broker</text><rect fill="#FFFFFF" height="420.3984" style="stroke:#181818;stroke-width:1.0;" width="10" x="33.9551" y="112.4297"/><rect fill="#FFFFFF" height="420.3984" style="stroke:#181818;stroke-width:1.0;" width="10" x="228.792" y="112.4297"/><rect fill="#FFFFFF" height="171.6641" style="stroke:#181818;stroke-width:1.0;" width="10" x="233.792" y="318.0313"/><rect fill="#FFFFFF" height="29.1328" style="stroke:#181818;stroke-width:1.0;" width="10" x="383.0508" y="318.0313"/><rect fill="#FFFFFF" height="29.1328" style="stroke:#181818;stroke-width:1.0;" width="10" x="474.2686" y="418.4297"/><polygon fill="#181818" points="216.792,108.4297,226.792,112.4297,216.792,116.4297,220.792,112.4297" style="stroke:#181818;stroke-width:1.0;"/><line style="stroke:#181818;stroke-width:1.0;" x1="43.9551" x2="222.792" y1="112.4297" y2="112.4297"/><text fill="#000000" font-family="sans-serif" font-size="13" lengthAdjust="spacing" textLength="101.9624" x="50.9551" y="107.3638">Fetch inventory</text><line style="stroke:#181818;stroke-width:1.0;" x1="238.792" x2="280.792" y1="141.5625" y2="141.5625"/><line style="stroke:#181818;stroke-width:1.0;" x1="280.792" x2="280.792" y1="141.5625" y2="154.5625"/><line style="stroke:#181818;stroke-width:1.0;" x1="239.792" x2="280.792" y1="154.5625" y2="154.5625"/><polygon fill="#181818" points="249.792,150.5625,239.792,154.5625,249.792,158.5625,245.792,154.5625" style="stroke:#181818;stroke-width:1.0;"/><text fill="#000000" font-family="sans-serif" font-size="13" lengthAdjust="spacing" textLength="82.6211" x="245.792" y="136.4966">Check cache</text><path d="M10,169.5625 L74.4429,169.5625 L74.4429,176.6953 L64.4429,186.6953 L10,186.6953 L10,169.5625 " fill="#EEEEEE" style="stroke:#000000;stroke-width:1.5;"/><rect fill="none" height="335.1328" style="stroke:#000000;stroke-width:1.5;" width="552.0156" x="10" y="169.5625"/><text fill="#000000" font-family="sans-serif" font-size="13" font-weight="bold" lengthAdjust="spacing" textLength="19.4429" x="25" y="182.6294">alt</text><text fill="#000000" font-family="sans-serif" font-size="11" font-weight="bold" lengthAdjust="spacing" textLength="131.4575" x="89.4429" y="181.7729">[Inventory is cached]</text><polygon fill="#181818" points="54.9551,203.8281,44.9551,207.8281,54.9551,211.8281,50.9551,207.8281" style="stroke:#181818;stroke-width:1.0;"/><line style="stroke:#181818;stroke-width:1.0;" x1="48.9551" x2="227.792" y1="207.8281" y2="207.8281"/><text fill="#000000" font-family="sans-serif" font-size="13" lengthAdjust="spacing" textLength="160.8369" x="60.9551" y="202.7622">Return cached inventory</text><line style="stroke:#000000;stroke-width:1.0;stroke-dasharray:2.0,2.0;" x1="10" x2="562.0156" y1="216.8281" y2="216.8281"/><text fill="#000000" font-family="sans-serif" font-size="11" font-weight="bold" lengthAdjust="spacing" textLength="155.9336" x="15" y="227.0386">[Inventory is not cached]</text><line style="stroke:#181818;stroke-width:1.0;" x1="238.792" x2="280.792" y1="251.7656" y2="251.7656"/><line style="stroke:#181818;stroke-width:1.0;" x1="280.792" x2="280.792" y1="251.7656" y2="264.7656"/><line style="stroke:#181818;stroke-width:1.0;" x1="239.792" x2="280.792" y1="264.7656" y2="264.7656"/><polygon fill="#181818" points="249.792,260.7656,239.792,264.7656,249.792,268.7656,245.792,264.7656" style="stroke:#181818;stroke-width:1.0;"/><text fill="#000000" font-family="sans-serif" font-size="13" lengthAdjust="spacing" textLength="74.623" x="245.792" y="246.6997">Queue load</text><path d="M171.333,279.7656 L326.4395,279.7656 L326.4395,286.8984 L316.4395,296.8984 L171.333,296.8984 L171.333,279.7656 " fill="#EEEEEE" style="stroke:#000000;stroke-width:1.5;"/><rect fill="none" height="175.7969" style="stroke:#000000;stroke-width:1.5;" width="380.6826" x="171.333" y="279.7656"/><text fill="#000000" font-family="sans-serif" font-size="13" font-weight="bold" lengthAdjust="spacing" textLength="110.1064" x="186.333" y="292.8325">Load inventory</text><polygon fill="#181818" points="371.0508,314.0313,381.0508,318.0313,371.0508,322.0313,375.0508,318.0313" style="stroke:#181818;stroke-width:1.0;"/><line style="stroke:#181818;stroke-width:1.0;" x1="243.792" x2="377.0508" y1="318.0313" y2="318.0313"/><text fill="#000000" font-family="sans-serif" font-size="13" lengthAdjust="spacing" textLength="97.4175" x="250.792" y="312.9653">Load inventory</text><polygon fill="#181818" points="254.792,343.1641,244.792,347.1641,254.792,351.1641,250.792,347.1641" style="stroke:#181818;stroke-width:1.0;"/><line style="stroke:#181818;stroke-width:1.0;stroke-dasharray:2.0,2.0;" x1="248.792" x2="387.0508" y1="347.1641" y2="347.1641"/><text fill="#000000" font-family="sans-serif" font-size="13" lengthAdjust="spacing" textLength="62.0928" x="260.792" y="342.0981">Inventory</text><line style="stroke:#181818;stroke-width:1.0;" x1="243.792" x2="285.792" y1="376.2969" y2="376.2969"/><line style="stroke:#181818;stroke-width:1.0;" x1="285.792" x2="285.792" y1="376.2969" y2="389.2969"/><line style="stroke:#181818;stroke-width:1.0;" x1="244.792" x2="285.792" y1="389.2969" y2="389.2969"/><polygon fill="#181818" points="254.792,385.2969,244.792,389.2969,254.792,393.2969,250.792,389.2969" style="stroke:#181818;stroke-width:1.0;"/><text fill="#000000" font-family="sans-serif" font-size="13" lengthAdjust="spacing" textLength="106.4312" x="250.792" y="371.231">Cache inventory</text><polygon fill="#181818" points="462.2686,414.4297,472.2686,418.4297,462.2686,422.4297,466.2686,418.4297" style="stroke:#181818;stroke-width:1.0;"/><line style="stroke:#181818;stroke-width:1.0;" x1="243.792" x2="468.2686" y1="418.4297" y2="418.4297"/><text fill="#000000" font-family="sans-serif" font-size="13" lengthAdjust="spacing" textLength="112.5693" x="250.792" y="413.3638">Publish inventory</text><polygon fill="#181818" points="254.792,443.5625,244.792,447.5625,254.792,451.5625,250.792,447.5625" style="stroke:#181818;stroke-width:1.0;"/><line style="stroke:#181818;stroke-width:1.0;stroke-dasharray:2.0,2.0;" x1="248.792" x2="478.2686" y1="447.5625" y2="447.5625"/><text fill="#000000" font-family="sans-serif" font-size="13" lengthAdjust="spacing" textLength="86.5059" x="260.792" y="442.4966">Acknowledge</text><line style="stroke:#181818;stroke-width:1.0;" x1="243.792" x2="285.792" y1="488.6953" y2="488.6953"/><line style="stroke:#181818;stroke-width:1.0;" x1="285.792" x2="285.792" y1="488.6953" y2="501.6953"/><line style="stroke:#181818;stroke-width:1.0;" x1="238.792" x2="285.792" y1="501.6953" y2="501.6953"/><polygon fill="#181818" points="248.792,497.6953,238.792,501.6953,248.792,505.6953,244.792,501.6953" style="stroke:#181818;stroke-width:1.0;"/><text fill="#000000" font-family="sans-serif" font-size="13" lengthAdjust="spacing" textLength="110.2588" x="250.792" y="483.6294">Inventory loaded</text><polygon fill="#181818" points="49.9551,528.8281,39.9551,532.8281,49.9551,536.8281,45.9551,532.8281" style="stroke:#181818;stroke-width:1.0;"/><line style="stroke:#181818;stroke-width:1.0;stroke-dasharray:2.0,2.0;" x1="43.9551" x2="232.792" y1="532.8281" y2="532.8281"/><text fill="#000000" font-family="sans-serif" font-size="13" lengthAdjust="spacing" textLength="109.9541" x="55.9551" y="527.7622">Return inventory</text><!--SRC=[XPBBQiCm44Nt-eeXU_-05uLIA0HQQ0jP1raQR657CdgazEyhrOgZXvskn8okZkuyABDAmycW1ch0-PEGcMehc9Yfj73eb6qkLD8UzI58V7oESIMy2VABTpJ6ow7JQeoGov8wBob2mh_GFANm5bxHiW64lABq7dy8PLPSgSNeSWrJHoG9Ak3BW6m4Hjc0_lbauNXZWp1BdXE00X5-Q-4BhTCoYX9JE1dCELBPNLPcvzEXGvWKvSGhUwtS36y-IkW0MuXsIvQseqgi_Ob0Q4epnmp6iS8zR6mezx7jVE8jVBXk4cROAw9Oa72Nf-eAdjaerVU4lCUoXWqQIlvlMVUnXY7zpJDlpDhMGCjNhroSUvqxY2GT7lu2]--></g></svg>