<svg xmlns="http://www.w3.org/2000/svg" xmlns:xlink="http://www.w3.org/1999/xlink" contentStyleType="text/css" height="740px" preserveAspectRatio="none" style="width:541px;height:740px;background:#FFFFFF;" version="1.1" viewBox="0 0 541 740" width="541px" zoomAndPan="magnify"><defs/><g><rect fill="#FFFFFF" height="74.3984" style="stroke:#181818;stroke-width:1.0;" width="10" x="33.9551" y="91.2969"/><rect fill="#FFFFFF" height="71.2656" style="stroke:#181818;stroke-width:1.0;" width="10" x="33.9551" y="225.9609"/><rect fill="#FFFFFF" height="87.3984" style="stroke:#181818;stroke-width:1.0;" width="10" x="33.9551" y="547.2891"/><rect fill="#FFFFFF" height="71.2656" style="stroke:#181818;stroke-width:1.0;" width="10" x="226.4473" y="225.9609"/><rect fill="#FFFFFF" height="129.5313" style="stroke:#181818;stroke-width:1.0;" width="10" x="226.4473" y="357.4922"/><rect fill="#FFFFFF" height="29.1328" style="stroke:#181818;stroke-width:1.0;" width="10" x="226.4473" y="576.4219"/><rect fill="#FFFFFF" height="29.1328" style="stroke:#181818;stroke-width:1.0;" width="10" x="366.8784" y="357.4922"/><rect fill="#FFFFFF" height="29.1328" style="stroke:#181818;stroke-width:1.0;" width="10" x="458.0962" y="136.5625"/><rect fill="#FFFFFF" height="176.7969" style="stroke:#181818;stroke-width:1.0;" width="10" x="458.0962" y="457.8906"/><rect fill="none" height="75.3984" style="stroke:#000000;stroke-width:1.5;" width="525.8433" x="10" y="98.2969"/><rect fill="none" height="117.5313" style="stroke:#000000;stroke-width:1.5;" width="330.0703" x="10" y="187.6953"/><rect fill="none" height="175.7969" style="stroke:#000000;stroke-width:1.5;" width="366.855" x="168.9883" y="319.2266"/><rect fill="none" height="133.6641" style="stroke:#000000;stroke-width:1.5;" width="525.8433" x="10" y="509.0234"/><line style="stroke:#181818;stroke-width:0.5;stroke-dasharray:5.0,5.0;" x1="38" x2="38" y1="81.2969" y2="659.6875"/><line style="stroke:#181818;stroke-width:0.5;stroke-dasharray:5.0,5.0;" x1="230.9883" x2="230.9883" y1="81.2969" y2="659.6875"/><line style="stroke:#181818;stroke-width:0.5;stroke-dasharray:5.0,5.0;" x1="371.4077" x2="371.4077" y1="81.2969" y2="659.6875"/><line style="stroke:#181818;stroke-width:0.5;stroke-dasharray:5.0,5.0;" x1="462.3491" x2="462.3491" y1="81.2969" y2="659.6875"/><text fill="#000000" font-family="sans-serif" font-size="14" lengthAdjust="spacing" textLength="31.9102" x="20" y="77.9951">User</text><ellipse cx="38.9551" cy="13.5" fill="#E2E2F0" rx="8" ry="8" style="stroke:#181818;stroke-width:0.5;"/><path d="M38.9551,21.5 L38.9551,48.5 M25.9551,29.5 L51.9551,29.5 M38.9551,48.5 L25.9551,63.5 M38.9551,48.5 L51.9551,63.5 " fill="none" style="stroke:#181818;stroke-width:0.5;"/><text fill="#000000" font-family="sans-serif" font-size="14" lengthAdjust="spacing" textLength="31.9102" x="20" y="671.6826">User</text><ellipse cx="38.9551" cy="683.4844" fill="#E2E2F0" rx="8" ry="8" style="stroke:#181818;stroke-width:0.5;"/><path d="M38.9551,691.4844 L38.9551,718.4844 M25.9551,699.4844 L51.9551,699.4844 M38.9551,718.4844 L25.9551,733.4844 M38.9551,718.4844 L51.9551,733.4844 " fill="none" style="stroke:#181818;stroke-width:0.5;"/><rect fill="#E2E2F0" height="30.2969" rx="2.5" ry="2.5" style="stroke:#181818;stroke-width:0.5;" width="104.918" x="178.9883" y="50"/><text fill="#000000" font-family="sans-serif" font-size="14" lengthAdjust="spacing" textLength="90.918" x="185.9883" y="69.9951">bot-manager</text><rect fill="#E2E2F0" height="30.2969" rx="2.5" ry="2.5" style="stroke:#181818;stroke-width:0.5;" width="104.918" x="178.9883" y="658.6875"/><text fill="#000000" font-family="sans-serif" font-size="14" lengthAdjust="spacing" textLength="90.918" x="185.9883" y="678.6826">bot-manager</text><rect fill="#E2E2F0" height="30.2969" rx="2.5" ry="2.5" style="stroke:#181818;stroke-width:0.5;" width="36.9414" x="353.4077" y="50"/><text fill="#000000" font-family="sans-serif" font-size="14" lengthAdjust="spacing" textLength="22.9414" x="360.4077" y="69.9951">bot</text><rect fill="#E2E2F0" height="30.2969" rx="2.5" ry="2.5" style="stroke:#181818;stroke-width:0.5;" width="36.9414" x="353.4077" y="658.6875"/><text fill="#000000" font-family="sans-serif" font-size="14" lengthAdjust="spacing" textLength="22.9414" x="360.4077" y="678.6826">bot</text><rect fill="#E2E2F0" height="30.2969" rx="2.5" ry="2.5" style="stroke:#181818;stroke-width:0.5;" width="125.4941" x="400.3491" y="50"/><text fill="#000000" font-family="sans-serif" font-size="14" lengthAdjust="spacing" textLength="111.4941" x="407.3491" y="69.9951">Message broker</text><rect fill="#E2E2F0" height="30.2969" rx="2.5" ry="2.5" style="stroke:#181818;stroke-width:0.5;" width="125.4941" x="400.3491" y="658.6875"/><text fill="#000000" font-family="sans-serif" font-size="14" lengthAdjust="spacing" textLength="111.4941" x="407.3491" y="678.6826">Message broker</text><rect fill="#FFFFFF" height="74.3984" style="stroke:#181818;stroke-width:1.0;" width="10" x="33.9551" y="91.2969"/><rect fill="#FFFFFF" height="71.2656" style="stroke:#181818;stroke-width:1.0;" width="10" x="33.9551" y="225.9609"/><rect fill="#FFFFFF" height="87.3984" style="stroke:#181818;stroke-width:1.0;" width="10" x="33.9551" y="547.2891"/><rect fill="#FFFFFF" height="71.2656" style="stroke:#181818;stroke-width:1.0;" width="10" x="226.4473" y="225.9609"/><rect fill="#FFFFFF" height="129.5313" style="stroke:#181818;stroke-width:1.0;" width="10" x="226.4473" y="357.4922"/><rect fill="#FFFFFF" height="29.1328" style="stroke:#181818;stroke-width:1.0;" width="10" x="226.4473" y="576.4219"/><rect fill="#FFFFFF" height="29.1328" style="stroke:#181818;stroke-width:1.0;" width="10" x="366.8784" y="357.4922"/><rect fill="#FFFFFF" height="29.1328" style="stroke:#181818;stroke-width:1.0;" width="10" x="458.0962" y="136.5625"/><rect fill="#FFFFFF" height="176.7969" style="stroke:#181818;stroke-width:1.0;" width="10" x="458.0962" y="457.8906"/><path d="M10,98.2969 L256.6968,98.2969 L256.6968,105.4297 L246.6968,115.4297 L10,115.4297 L10,98.2969 " fill="#EEEEEE" style="stroke:#000000;stroke-width:1.5;"/><rect fill="none" height="75.3984" style="stroke:#000000;stroke-width:1.5;" width="525.8433" x="10" y="98.2969"/><text fill="#000000" font-family="sans-serif" font-size="13" font-weight="bold" lengthAdjust="spacing" textLength="201.6968" x="25" y="111.3638">Connect to message broker</text><polygon fill="#181818" points="446.0962,132.5625,456.0962,136.5625,446.0962,140.5625,450.0962,136.5625" style="stroke:#181818;stroke-width:1.0;"/><line style="stroke:#181818;stroke-width:1.0;" x1="43.9551" x2="452.0962" y1="136.5625" y2="136.5625"/><text fill="#000000" font-family="sans-serif" font-size="13" lengthAdjust="spacing" textLength="194.9873" x="50.9551" y="131.4966">Subscribe to inventory events</text><polygon fill="#181818" points="49.9551,161.6953,39.9551,165.6953,49.9551,169.6953,45.9551,165.6953" style="stroke:#181818;stroke-width:1.0;"/><line style="stroke:#181818;stroke-width:1.0;stroke-dasharray:2.0,2.0;" x1="43.9551" x2="462.0962" y1="165.6953" y2="165.6953"/><text fill="#000000" font-family="sans-serif" font-size="13" lengthAdjust="spacing" textLength="86.5059" x="55.9551" y="160.6294">Acknowledge</text><path d="M10,187.6953 L286.4038,187.6953 L286.4038,194.8281 L276.4038,204.8281 L10,204.8281 L10,187.6953 " fill="#EEEEEE" style="stroke:#000000;stroke-width:1.5;"/><rect fill="none" height="117.5313" style="stroke:#000000;stroke-width:1.5;" width="330.0703" x="10" y="187.6953"/><text fill="#000000" font-family="sans-serif" font-size="13" font-weight="bold" lengthAdjust="spacing" textLength="231.4038" x="25" y="200.7622">Request inventory to be loaded</text><polygon fill="#181818" points="214.4473,221.9609,224.4473,225.9609,214.4473,229.9609,218.4473,225.9609" style="stroke:#181818;stroke-width:1.0;"/><line style="stroke:#181818;stroke-width:1.0;" x1="43.9551" x2="220.4473" y1="225.9609" y2="225.9609"/><text fill="#000000" font-family="sans-serif" font-size="13" lengthAdjust="spacing" textLength="168.4922" x="50.9551" y="220.895">Request to load inventory</text><line style="stroke:#181818;stroke-width:1.0;" x1="236.4473" x2="278.4473" y1="255.0938" y2="255.0938"/><line style="stroke:#181818;stroke-width:1.0;" x1="278.4473" x2="278.4473" y1="255.0938" y2="268.0938"/><line style="stroke:#181818;stroke-width:1.0;" x1="237.4473" x2="278.4473" y1="268.0938" y2="268.0938"/><polygon fill="#181818" points="247.4473,264.0938,237.4473,268.0938,247.4473,272.0938,243.4473,268.0938" style="stroke:#181818;stroke-width:1.0;"/><text fill="#000000" font-family="sans-serif" font-size="13" lengthAdjust="spacing" textLength="74.623" x="243.4473" y="250.0278">Queue load</text><polygon fill="#181818" points="49.9551,293.2266,39.9551,297.2266,49.9551,301.2266,45.9551,297.2266" style="stroke:#181818;stroke-width:1.0;"/><line style="stroke:#181818;stroke-width:1.0;stroke-dasharray:2.0,2.0;" x1="43.9551" x2="230.4473" y1="297.2266" y2="297.2266"/><text fill="#000000" font-family="sans-serif" font-size="13" lengthAdjust="spacing" textLength="86.5059" x="55.9551" y="292.1606">Acknowledge</text><path d="M168.9883,319.2266 L324.0947,319.2266 L324.0947,326.3594 L314.0947,336.3594 L168.9883,336.3594 L168.9883,319.2266 " fill="#EEEEEE" style="stroke:#000000;stroke-width:1.5;"/><rect fill="none" height="175.7969" style="stroke:#000000;stroke-width:1.5;" width="366.855" x="168.9883" y="319.2266"/><text fill="#000000" font-family="sans-serif" font-size="13" font-weight="bold" lengthAdjust="spacing" textLength="110.1064" x="183.9883" y="332.2935">Load inventory</text><polygon fill="#181818" points="354.8784,353.4922,364.8784,357.4922,354.8784,361.4922,358.8784,357.4922" style="stroke:#181818;stroke-width:1.0;"/><line style="stroke:#181818;stroke-width:1.0;" x1="236.4473" x2="360.8784" y1="357.4922" y2="357.4922"/><text fill="#000000" font-family="sans-serif" font-size="13" lengthAdjust="spacing" textLength="97.4175" x="243.4473" y="352.4263">Load inventory</text><polygon fill="#181818" points="247.4473,382.625,237.4473,386.625,247.4473,390.625,243.4473,386.625" style="stroke:#181818;stroke-width:1.0;"/><line style="stroke:#181818;stroke-width:1.0;stroke-dasharray:2.0,2.0;" x1="241.4473" x2="370.8784" y1="386.625" y2="386.625"/><text fill="#000000" font-family="sans-serif" font-size="13" lengthAdjust="spacing" textLength="62.0928" x="253.4473" y="381.5591">Inventory</text><line style="stroke:#181818;stroke-width:1.0;" x1="236.4473" x2="278.4473" y1="415.7578" y2="415.7578"/><line style="stroke:#181818;stroke-width:1.0;" x1="278.4473" x2="278.4473" y1="415.7578" y2="428.7578"/><line style="stroke:#181818;stroke-width:1.0;" x1="237.4473" x2="278.4473" y1="428.7578" y2="428.7578"/><polygon fill="#181818" points="247.4473,424.7578,237.4473,428.7578,247.4473,432.7578,243.4473,428.7578" style="stroke:#181818;stroke-width:1.0;"/><text fill="#000000" font-family="sans-serif" font-size="13" lengthAdjust="spacing" textLength="106.4312" x="243.4473" y="410.6919">Cache inventory</text><polygon fill="#181818" points="446.0962,453.8906,456.0962,457.8906,446.0962,461.8906,450.0962,457.8906" style="stroke:#181818;stroke-width:1.0;"/><line style="stroke:#181818;stroke-width:1.0;" x1="236.4473" x2="452.0962" y1="457.8906" y2="457.8906"/><text fill="#000000" font-family="sans-serif" font-size="13" lengthAdjust="spacing" textLength="112.5693" x="243.4473" y="452.8247">Publish inventory</text><polygon fill="#181818" points="242.4473,483.0234,232.4473,487.0234,242.4473,491.0234,238.4473,487.0234" style="stroke:#181818;stroke-width:1.0;"/><line style="stroke:#181818;stroke-width:1.0;stroke-dasharray:2.0,2.0;" x1="236.4473" x2="457.0962" y1="487.0234" y2="487.0234"/><text fill="#000000" font-family="sans-serif" font-size="13" lengthAdjust="spacing" textLength="86.5059" x="248.4473" y="481.9575">Acknowledge</text><path d="M10,509.0234 L245.1187,509.0234 L245.1187,516.1563 L235.1187,526.1563 L10,526.1563 L10,509.0234 " fill="#EEEEEE" style="stroke:#000000;stroke-width:1.5;"/><rect fill="none" height="133.6641" style="stroke:#000000;stroke-width:1.5;" width="525.8433" x="10" y="509.0234"/><text fill="#000000" font-family="sans-serif" font-size="13" font-weight="bold" lengthAdjust="spacing" textLength="190.1187" x="25" y="522.0903">React to inventory loaded</text><polygon fill="#181818" points="54.9551,543.2891,44.9551,547.2891,54.9551,551.2891,50.9551,547.2891" style="stroke:#181818;stroke-width:1.0;"/><line style="stroke:#181818;stroke-width:1.0;" x1="48.9551" x2="457.0962" y1="547.2891" y2="547.2891"/><text fill="#000000" font-family="sans-serif" font-size="13" lengthAdjust="spacing" textLength="110.2588" x="60.9551" y="542.2231">Inventory loaded</text><polygon fill="#181818" points="214.4473,572.4219,224.4473,576.4219,214.4473,580.4219,218.4473,576.4219" style="stroke:#181818;stroke-width:1.0;"/><line style="stroke:#181818;stroke-width:1.0;" x1="43.9551" x2="220.4473" y1="576.4219" y2="576.4219"/><text fill="#000000" font-family="sans-serif" font-size="13" lengthAdjust="spacing" textLength="119.3931" x="50.9551" y="571.356">Request inventory</text><polygon fill="#181818" points="54.9551,601.5547,44.9551,605.5547,54.9551,609.5547,50.9551,605.5547" style="stroke:#181818;stroke-width:1.0;"/><line style="stroke:#181818;stroke-width:1.0;stroke-dasharray:2.0,2.0;" x1="48.9551" x2="230.4473" y1="605.5547" y2="605.5547"/><text fill="#000000" font-family="sans-serif" font-size="13" lengthAdjust="spacing" textLength="114.6831" x="60.9551" y="600.4888">Cached inventory</text><polygon fill="#181818" points="451.0962,630.6875,461.0962,634.6875,451.0962,638.6875,455.0962,634.6875" style="stroke:#181818;stroke-width:1.0;"/><line style="stroke:#181818;stroke-width:1.0;stroke-dasharray:2.0,2.0;" x1="38.9551" x2="457.0962" y1="634.6875" y2="634.6875"/><text fill="#000000" font-family="sans-serif" font-size="13" lengthAdjust="spacing" textLength="86.5059" x="45.9551" y="629.6216">Acknowledge</text><!--SRC=[fLFBRiCW4BpxArQv-mTyg5Jb5AcL-b3FqHgl71G7N1wf-lV5ndO0FnAf9rWOPcTt1sH6AlZIf00rMBTcMOlASCPR50PsfJJv1GNMf7OTnCN78Pu1Hq1yyKfQEpYKIfu7aei_ElgZBAkLj2tifH3431Wv0eOt6G0omwzeo4k4Ve7yAM4guDEMcYbUKiV2nPM4g-yNgDlea2UH0Ca1v8wyIrB0CpiB-TDGLPE3LRHE4TprCabKOsqVz6r9cq2Iq-TKDX8hgeA2WluMqok7xO2trmiTcU9mGX16C_ftIzPBI87tYu-pR5J-aWgVAohce33FPd6zrgYgGq0J2xxJZZso4sr9JStsPik6wzEoy4SC5gL_gDMHfT1_bfkd9ZUbkSPn7kRGjP-rQCIr4QqPRahSzpOUyQgPl8A5Vl_h9_u1]--></g></svg>